<svg xmlns="http://www.w3.org/2000/svg" fill="none" viewBox="0 0 115 38" height='38' width="115">
					<path
						fill="#113A54"
						d="M43.6 31V13.4h7.7c1 0 1.8.1 2.6.4.6.3 1.1.7 1.5 1.2.4.6.7 1.2.8 1.9a14 14 0 0 1 0 4.7c-.1.6-.4 1.3-.8 1.8-.3.6-.9 1-1.5 1.2-.8.3-1.7.4-2.6.4H47v6h-3.5Zm3.5-8.8h2.8c.5 0 1.1 0 1.6-.2.4 0 .7-.2 1-.4l.3-.9.2-1.5c0-.5 0-1-.2-1.4l-.3-.9c-.3-.2-.6-.4-.9-.4l-1.6-.1h-3v5.8ZM63 31.1c-.7 0-1.4 0-2-.3-.5-.2-.9-.5-1.2-1-.3-.4-.5-1-.5-1.5A14 14 0 0 1 59 26v-8h3.2v6.8l.1 1.9c0 .4.1.7.3 1 .2.2.4.4.7.4l1.1.1c.4 0 .9 0 1.3-.2.3 0 .5-.3.7-.6l.2-1V18H70v13h-3l-.1-1.6h-.2a3 3 0 0 1-.9 1c-.3.3-.8.5-1.2.6-.6.1-1.1.2-1.7.1Zm17.4 0-1.5-.1-1.2-.5a3 3 0 0 1-1-1.2h-.2l-.1 1.7h-3V12h3.2v7.4h.2a2 2 0 0 1 1-1c.3-.3.7-.4 1.1-.5a7.3 7.3 0 0 1 3.4.2c.5.2 1 .6 1.3 1.1.4.6.6 1.3.7 2a18.9 18.9 0 0 1 0 6.5c0 .8-.3 1.5-.7 2-.3.6-.8 1-1.3 1.2-.6.2-1.3.3-2 .2ZM79 28.2h1.3c.3-.1.5-.3.7-.6.2-.3.3-.7.3-1v-4.2a2 2 0 0 0-.3-1.1c-.2-.3-.4-.4-.7-.5a5 5 0 0 0-1.3-.1 4 4 0 0 0-1.2.1 1.1 1.1 0 0 0-.7.6l-.4 1.2a15.5 15.5 0 0 0 0 3.6c0 .5.2.9.4 1.2.1.3.4.5.7.6.4.2.8.2 1.2.2Zm8.6 2.8V12h3.2v19h-3.2Zm12.2.1c-1 0-1.8 0-2.7-.2a4 4 0 0 1-1.8-.7c-.4-.3-.7-.8-1-1.3-.2-.6-.3-1.2-.3-1.9l-.1-2.5.1-3c.1-.8.4-1.5.7-2.1.5-.6 1-1 1.7-1.2 1-.3 2-.4 3-.4s1.8 0 2.6.2c.6.2 1 .4 1.5.8.4.3.7.8.9 1.3.2.6.3 1.2.3 1.9v3.5H97l.1 1.6c0 .3.2.6.4.9l1 .4h4.5l1.3-.2v2.5l-1.3.2-1.7.2h-1.5Zm1.9-7.3v-.4l-.1-1.6c0-.3-.2-.6-.4-.9l-.7-.4h-2.3c-.3.1-.6.2-.8.5l-.3.9v1.5h5l-.4.4Zm6.1 7.2V18h3v2.2h.2c.2-.6.5-1.1.9-1.5.3-.4.8-.7 1.3-.8l1.8-.1V21a5 5 0 0 0-2.4.5c-.6.3-1 .8-1.3 1.5-.3.9-.4 1.8-.3 2.8V31h-3.2Z"
					/>
					<path
						fill="url(#publer_logo_letter)"
						d="m31 34.4 7.1-28.8a4.3 4.3 0 0 0-.4-3.1A4 4 0 0 0 35.3.6l-1-.1H3.8a3.7 3.7 0 0 0-2.7 1.2A4 4 0 0 0 0 4.6l.1 1 7 28.8a4 4 0 0 0 1.4 2.2c.7.6 1.5.9 2.4.9h16.4c.9 0 1.7-.3 2.4-.9.7-.5 1.1-1.3 1.4-2.2Z"
					/>
					<path
						fill="#fff"
						d="M30.6 5.5h-23a2 2 0 0 0-1.5.7 2.3 2.3 0 0 0-.6 2.1L11 30.8c.1.5.4 1 .8 1.2.3.3.8.5 1.3.5h2.5a2 2 0 0 0 1.5-.7 2.3 2.3 0 0 0 .6-1.6v-.5l-1-4.6-2.4-1.6h13c.5 0 1-.2 1.3-.5.4-.3.7-.7.8-1.2l3.3-13.5a2.4 2.4 0 0 0-.3-1.7 2.2 2.2 0 0 0-1.3-1 2 2 0 0 0-.5 0Z"
					/>
					<path
						fill="url(#publer_logo_text)"
						d="m11.3 12 2.4 1.9.5 2.1c0 .3.2.5.4.7.2.2.5.3.7.3H24c.2 0 .5 0 .7-.3.2-.1.4-.4.5-.7l.6-4H11.3Z"
					/>
					<defs>
						<linearGradient
							id="publer_logo_letter"
							x1="-11.6"
							x2="37"
							y1="52.6"
							y2="-1.9"
							gradientUnits="userSpaceOnUse"
						>
							<stop offset=".5" stop-color="#00C2FF" />
							<stop offset=".8" stop-color="#00E2CE" />
							<stop offset="1" stop-color="#00FAA8" />
						</linearGradient>
						<linearGradient
							id="publer_logo_text"
							x1="-141.9"
							x2="-26.2"
							y1="-38.3"
							y2="348.4"
							gradientUnits="userSpaceOnUse"
						>
							<stop offset=".5" stop-color="#00C2FF" />
							<stop offset=".8" stop-color="#00E2CE" />
							<stop offset="1" stop-color="#00FAA8" />
						</linearGradient>
					</defs>
				</svg>